<svg enable-background="new 0 0 512 512" height="512" viewBox="0 0 512 512" width="512" xmlns="http://www.w3.org/2000/svg"><g id="BULINE"><g id="XMLID_531_"><circle cx="256" cy="256" fill="#f7bb38" r="256"/></g></g><g id="Icons"><g id="XMLID_68_"><g id="XMLID_33_"><path d="m401.559 449h-282.213c-8.02 0-14.522-6.502-14.522-14.522v-361.123c0-8.02 6.502-14.522 14.522-14.522h282.213c8.02 0 14.522 6.502 14.522 14.522v361.123c0 8.02-6.502 14.522-14.522 14.522z" fill="#00b564"/></g><g id="XMLID_99_"><path d="m377.092 416.121h-234.649c-6.668 0-12.074-5.406-12.074-12.074v-300.26c0-6.668 5.406-12.074 12.074-12.074h234.649c6.668 0 12.074 5.406 12.074 12.074v300.26c0 6.668-5.406 12.074-12.074 12.074z" fill="#04a055"/></g><g id="XMLID_81_"><path d="m187.625 314.013h4v25.938h-4z" fill="#b0d46c"/></g><g id="XMLID_32_"><path d="m205.161 314.013h4v25.938h-4z" fill="#b0d46c"/></g><g id="XMLID_83_"><path d="m222.696 314.013h4v25.938h-4z" fill="#b0d46c"/></g><g id="XMLID_84_"><path d="m240.232 314.013h4v25.938h-4z" fill="#b0d46c"/></g><g id="XMLID_85_"><path d="m257.768 314.013h4v25.938h-4z" fill="#b0d46c"/></g><g id="XMLID_86_"><path d="m275.303 314.013h4v25.938h-4z" fill="#b0d46c"/></g><g id="XMLID_87_"><path d="m292.838 314.013h4v25.938h-4z" fill="#b0d46c"/></g><g id="XMLID_88_"><path d="m310.374 314.013h4v25.938h-4z" fill="#b0d46c"/></g><g id="XMLID_89_"><path d="m327.91 314.013h4v25.938h-4z" fill="#b0d46c"/></g><g id="XMLID_98_"><path d="m187.625 356.938h4v25.938h-4z" fill="#b0d46c"/></g><g id="XMLID_97_"><path d="m205.161 356.938h4v25.938h-4z" fill="#b0d46c"/></g><g id="XMLID_96_"><path d="m222.696 356.938h4v25.938h-4z" fill="#b0d46c"/></g><g id="XMLID_95_"><path d="m240.232 356.938h4v25.938h-4z" fill="#b0d46c"/></g><g id="XMLID_94_"><path d="m257.768 356.938h4v25.938h-4z" fill="#b0d46c"/></g><g id="XMLID_93_"><path d="m275.303 356.938h4v25.938h-4z" fill="#b0d46c"/></g><g id="XMLID_92_"><path d="m292.838 356.938h4v25.938h-4z" fill="#b0d46c"/></g><g id="XMLID_91_"><path d="m310.374 356.938h4v25.938h-4z" fill="#b0d46c"/></g><g id="XMLID_90_"><path d="m327.91 356.938h4v25.938h-4z" fill="#b0d46c"/></g><g id="XMLID_65_"><path d="m387.905 426.797c-.085 0-.171-.005-.256-.017l-55.803-7.215.513-3.967 53.547 6.923v-118.381h-61.44c-1.104 0-2-.896-2-2v-73.156c0-1.104.896-2 2-2h69.021v-146.606h-265.671v81.508l37.155 8.061c.92.2 1.576 1.013 1.576 1.955v115.252c0 .53-.211 1.039-.586 1.414l-35.954 35.955v55.066h-4v-55.895c0-.53.211-1.039.586-1.414l35.954-35.955v-112.811l-37.155-8.061c-.92-.2-1.576-1.013-1.576-1.955v-85.12c0-1.104.896-2 2-2h269.669c1.104 0 2 .896 2 2v150.605c0 1.104-.896 2-2 2h-69.021v69.156h61.44c1.104 0 2 .896 2 2v122.658c0 .575-.248 1.123-.68 1.502-.366.323-.836.498-1.319.498z" fill="#b0d46c"/></g><g id="XMLID_31_"><path d="m350.414 350.271h-179.923c-4.489 0-8.128-3.639-8.128-8.128v-4.384c0-4.489 3.639-8.128 8.128-8.128h179.922c4.489 0 8.128 3.639 8.128 8.128v4.384c.001 4.489-3.638 8.128-8.127 8.128z" fill="#fff"/></g><g id="XMLID_41_"><path d="m375.073 116.372h-229.241c-5.7 0-10.32-4.621-10.32-10.32 0-5.7 4.621-10.32 10.32-10.32h229.241c5.7 0 10.32 4.621 10.32 10.32 0 5.699-4.62 10.32-10.32 10.32z" fill="#037f3e"/></g><g id="XMLID_30_"><path d="m375.073 157.288h-229.241c-5.7 0-10.32-4.621-10.32-10.32 0-5.7 4.621-10.32 10.32-10.32h229.241c5.7 0 10.32 4.621 10.32 10.32 0 5.7-4.62 10.32-10.32 10.32z" fill="#037f3e"/></g><g id="XMLID_29_"><path d="m350.414 391.187h-179.923c-4.489 0-8.128-3.639-8.128-8.128v-4.384c0-4.489 3.639-8.128 8.128-8.128h179.922c4.489 0 8.128 3.639 8.128 8.128v4.384c.001 4.489-3.638 8.128-8.127 8.128z" fill="#fff"/></g><g id="XMLID_28_"><path d="m147.491 261.588h-38.967c-2.102 0-3.806-1.704-3.806-3.806v-43.899c0-2.102 1.704-3.806 3.806-3.806h38.967c2.102 0 3.806 1.704 3.806 3.806v43.899c0 2.103-1.704 3.806-3.806 3.806z" fill="#02934d"/></g><g id="XMLID_62_"><path d="m130.809 302.139h-22.285c-2.102 0-3.806-1.704-3.806-3.806v-25.45c0-2.102 1.704-3.806 3.806-3.806h22.285c2.102 0 3.806 1.704 3.806 3.806v25.45c0 2.103-1.704 3.806-3.806 3.806z" fill="#02934d"/></g><g id="XMLID_61_"><path d="m124.202 202.954h-15.678c-2.102 0-3.806-1.704-3.806-3.806v-16.5c0-2.102 1.704-3.806 3.806-3.806h15.678c2.102 0 3.806 1.704 3.806 3.806v16.5c0 2.102-1.704 3.806-3.806 3.806z" fill="#02934d"/></g><g id="XMLID_47_"><path d="m154.995 159.024h-15.678c-2.102 0-3.806-1.704-3.806-3.806v-16.5c0-2.102 1.704-3.806 3.806-3.806h15.678c2.102 0 3.806 1.704 3.806 3.806v16.5c0 2.102-1.704 3.806-3.806 3.806z" fill="#fff"/></g><g id="XMLID_26_"><path d="m381.588 159.024h-15.678c-2.102 0-3.806-1.704-3.806-3.806v-16.5c0-2.102 1.704-3.806 3.806-3.806h15.678c2.102 0 3.806 1.704 3.806 3.806v16.5c-.001 2.102-1.704 3.806-3.806 3.806z" fill="#fff"/></g><g id="XMLID_25_"><path d="m154.995 118.107h-15.678c-2.102 0-3.806-1.704-3.806-3.806v-16.5c0-2.102 1.704-3.806 3.806-3.806h15.678c2.102 0 3.806 1.704 3.806 3.806v16.5c0 2.102-1.704 3.806-3.806 3.806z" fill="#fff"/></g><g id="XMLID_49_"><path d="m381.588 118.107h-15.678c-2.102 0-3.806-1.704-3.806-3.806v-16.5c0-2.102 1.704-3.806 3.806-3.806h15.678c2.102 0 3.806 1.704 3.806 3.806v16.5c-.001 2.102-1.704 3.806-3.806 3.806z" fill="#fff"/></g><g id="XMLID_24_"><path d="m382.836 289.248h-114.346c-1.657 0-3-1.343-3-3v-114.347c0-1.657 1.343-3 3-3h114.346c1.657 0 3 1.343 3 3v114.347c0 1.657-1.343 3-3 3zm-111.346-6h108.346v-108.347h-108.346z" fill="#32314b"/></g><g id="XMLID_51_"><path d="m363.303 207.098h-77.677c-1.381 0-2.5-1.119-2.5-2.5s1.119-2.5 2.5-2.5h77.677c1.381 0 2.5 1.119 2.5 2.5s-1.119 2.5-2.5 2.5z" fill="#fff"/></g><g id="XMLID_52_"><path d="m363.303 222.989h-77.677c-1.381 0-2.5-1.119-2.5-2.5s1.119-2.5 2.5-2.5h77.677c1.381 0 2.5 1.119 2.5 2.5s-1.119 2.5-2.5 2.5z" fill="#fff"/></g><g id="XMLID_53_"><path d="m363.303 238.881h-77.677c-1.381 0-2.5-1.119-2.5-2.5s1.119-2.5 2.5-2.5h77.677c1.381 0 2.5 1.119 2.5 2.5s-1.119 2.5-2.5 2.5z" fill="#fff"/></g><g id="XMLID_54_"><path d="m363.303 254.772h-77.677c-1.381 0-2.5-1.119-2.5-2.5s1.119-2.5 2.5-2.5h77.677c1.381 0 2.5 1.119 2.5 2.5s-1.119 2.5-2.5 2.5z" fill="#fff"/></g><g id="XMLID_23_"><path d="m332.102 275.642c-1.381 0-2.5-1.119-2.5-2.5v-87.724c0-1.381 1.119-2.5 2.5-2.5s2.5 1.119 2.5 2.5v87.724c0 1.381-1.12 2.5-2.5 2.5z" fill="#fff"/></g><g id="XMLID_55_"><path d="m313.47 275.642c-1.381 0-2.5-1.119-2.5-2.5v-87.724c0-1.381 1.119-2.5 2.5-2.5s2.5 1.119 2.5 2.5v87.724c0 1.381-1.119 2.5-2.5 2.5z" fill="#fff"/></g><g id="XMLID_22_"><path d="m349.168 267.068h-49.408c-2.061 0-3.732-1.671-3.732-3.732v-68.523c0-2.061 1.671-3.732 3.732-3.732h49.408c2.061 0 3.732 1.671 3.732 3.732v68.523c0 2.061-1.671 3.732-3.732 3.732z" fill="#32314b"/></g><g id="XMLID_64_"><path d="m313.454 267.068h-13.7c-2.06 0-3.726-1.666-3.726-3.737v-68.52c0-2.06 1.666-3.726 3.726-3.726h13.7c-2.06 0-3.726 1.666-3.726 3.726v68.52c0 2.071 1.666 3.737 3.726 3.737z" fill="#27273d"/></g><g id="XMLID_46_"><circle cx="342.513" cy="212.27" fill="#4f4f74" r="4.384"/></g><g id="XMLID_58_"><circle cx="342.513" cy="203.137" fill="#4f4f74" r="3.105"/></g><g id="XMLID_57_"><path d="m346.897 342.951h-174.26c-1.657 0-3-1.343-3-3s1.343-3 3-3h174.26c1.657 0 3 1.343 3 3s-1.343 3-3 3z" fill="#32314b"/></g><g id="XMLID_59_"><path d="m346.897 383.867h-174.26c-1.657 0-3-1.343-3-3s1.343-3 3-3h174.26c1.657 0 3 1.343 3 3s-1.343 3-3 3z" fill="#32314b"/></g><g id="XMLID_21_"><path d="m277.143 435.483h-112.52c-3.216 0-5.822-2.607-5.822-5.822v-9.727c0-3.216 2.607-5.822 5.822-5.822h112.52c3.216 0 5.822 2.607 5.822 5.822v9.727c.001 3.215-2.606 5.822-5.822 5.822z" fill="#32314b"/></g><g id="XMLID_42_"><path d="m138.692 256.109h-38.967c-2.102 0-3.806-1.704-3.806-3.806v-43.899c0-2.102 1.704-3.806 3.806-3.806h38.967c2.102 0 3.806 1.704 3.806 3.806v43.899c0 2.102-1.704 3.806-3.806 3.806z" fill="#fff"/></g><g id="XMLID_20_"><path d="m122.01 296.66h-22.285c-2.102 0-3.806-1.704-3.806-3.806v-25.45c0-2.102 1.704-3.806 3.806-3.806h22.285c2.102 0 3.806 1.704 3.806 3.806v25.45c0 2.102-1.704 3.806-3.806 3.806z" fill="#fff"/></g><g id="XMLID_19_"><path d="m115.403 197.474h-15.678c-2.102 0-3.806-1.704-3.806-3.806v-16.5c0-2.102 1.704-3.806 3.806-3.806h15.678c2.102 0 3.806 1.704 3.806 3.806v16.5c0 2.102-1.704 3.806-3.806 3.806z" fill="#fff"/></g><g id="XMLID_66_"><path d="m126.008 396.759h4v38.724h-4z" fill="#b0d46c"/></g><g id="XMLID_67_"><path d="m144.277 396.759h4v38.724h-4z" fill="#b0d46c"/></g><g id="XMLID_60_"><path d="m394.116 416.121h-12.421c-4.388 0-7.946-3.557-7.946-7.946v-76.536c0-4.388 3.557-7.946 7.946-7.946h12.421c4.388 0 7.946 3.557 7.946 7.946v76.536c-.001 4.388-3.558 7.946-7.946 7.946z" fill="#f6c752"/></g><g id="XMLID_77_"><path d="m389.73 416.121h-8.034c-4.395 0-7.946-3.562-7.946-7.946v-76.532c0-4.395 3.551-7.946 7.946-7.946h8.034c-4.384 0-7.946 3.551-7.946 7.946v76.532c0 4.384 3.562 7.946 7.946 7.946z" fill="#f7bb38"/></g><g id="XMLID_75_"><circle cx="332.102" cy="417.582" fill="#32314b" r="17.901"/></g><g id="XMLID_74_"><circle cx="332.102" cy="417.582" fill="#fff" r="13.7"/></g><g id="XMLID_78_"><circle cx="171.35" cy="78.378" fill="#32314b" r="12.056"/></g><g id="XMLID_76_"><circle cx="171.35" cy="78.378" fill="#fff" r="9.226"/></g><g id="XMLID_80_"><circle cx="234.583" cy="78.378" fill="#32314b" r="12.056"/></g><g id="XMLID_79_"><circle cx="234.583" cy="78.378" fill="#fff" r="9.226"/></g><g id="XMLID_70_"><path d="m148.277 379.588h-4v-55.895c0-.53.211-1.039.586-1.414l35.954-35.955v-112.961c0-1.104.896-2 2-2h38.066c1.104 0 2 .896 2 2v90.235h-4v-88.235h-34.066v111.791c0 .53-.211 1.039-.586 1.414l-35.954 35.955z" fill="#b0d46c"/></g><g id="XMLID_69_"><circle cx="220.883" cy="204.598" fill="#32314b" r="17.901"/></g><g id="XMLID_71_"><circle cx="220.883" cy="204.598" fill="#fff" r="13.7"/></g><g id="XMLID_73_"><circle cx="220.883" cy="261.588" fill="#32314b" r="17.901"/></g><g id="XMLID_72_"><circle cx="220.883" cy="261.588" fill="#fff" r="13.7"/></g></g></g></svg>